# xmcd CD database file
#
# Track frame offsets:
#	150
#	27593
#	50713
#	69010
#	81423
#
# Disc length: 1308 seconds
#
# Revision: 0
# Processed by: cddbd v1.5.1PL2 Copyright (c) Steve Scherf et al.
# Submitted via: CDex 1.50
#
DISCID=3e051a05
DTITLE=folk enough - monica
DYEAR=2006
DGENRE=Blues
TTITLE0=LaBlues
TTITLE1=A.Y.
TTITLE2=CATSMILE
TTITLE3=UNISON
TTITLE4=MONICA
EXTD=YEAR: 2006
EXTT0=
EXTT1=
EXTT2=
EXTT3=
EXTT4=
PLAYORDER=
